<?xml version="1.0" encoding="UTF-8"?>
<!DOCTYPE svg PUBLIC "-//W3C//DTD SVG 1.1//EN" "http://www.w3.org/Graphics/SVG/1.1/DTD/svg11.dtd">
<svg xmlns="http://www.w3.org/2000/svg" version="1.1" width="150px" height="150px" style="shape-rendering:geometricPrecision; text-rendering:geometricPrecision; image-rendering:optimizeQuality; fill-rule:evenodd; clip-rule:evenodd" xmlns:xlink="http://www.w3.org/1999/xlink">
<g><path style="opacity:1" fill="#404cfb" d="M 56.5,9.5 C 57.4971,8.28749 58.4971,8.45415 59.5,10C 58.9056,10.4643 58.2389,10.631 57.5,10.5C 57.5,9.83333 57.1667,9.5 56.5,9.5 Z"/></g>
<g><path style="opacity:1" fill="#0070fa" d="M 56.5,9.5 C 57.1667,9.5 57.5,9.83333 57.5,10.5C 59.177,12.5398 60.8437,14.5398 62.5,16.5C 62.5,17.1667 62.8333,17.5 63.5,17.5C 63.9321,18.7095 64.5987,19.7095 65.5,20.5C 65.5,21.1667 65.8333,21.5 66.5,21.5C 66.3284,22.4916 66.6618,23.1583 67.5,23.5C 67.5,24.1667 67.8333,24.5 68.5,24.5C 70.2495,28.3346 72.2495,32.0012 74.5,35.5C 74.3284,36.4916 74.6618,37.1583 75.5,37.5C 75.3284,38.4916 75.6618,39.1583 76.5,39.5C 76.7959,41.403 77.4625,43.0697 78.5,44.5C 78.9281,47.7846 79.9281,50.7846 81.5,53.5C 81.2627,54.791 81.596,55.791 82.5,56.5C 82.3433,57.8734 82.51,59.2068 83,60.5C 83.3826,59.944 83.8826,59.6107 84.5,59.5C 83.5284,64.3316 83.8617,68.9983 85.5,73.5C 85.5,80.8333 85.5,88.1667 85.5,95.5C 84.5269,97.9479 84.1936,100.615 84.5,103.5C 83.0566,107.615 82.0566,111.948 81.5,116.5C 80.6618,116.842 80.3284,117.508 80.5,118.5C 65.9683,118.234 51.6349,118.901 37.5,120.5C 35.1667,120.5 32.8333,120.5 30.5,120.5C 31.9117,118.02 33.5784,115.687 35.5,113.5C 36.1667,113.5 36.5,113.167 36.5,112.5C 37.4013,111.71 38.0679,110.71 38.5,109.5C 39.1667,109.5 39.5,109.167 39.5,108.5C 42.1941,105.124 44.5274,101.457 46.5,97.5C 47.3382,97.1583 47.6716,96.4916 47.5,95.5C 48.3382,95.1583 48.6716,94.4916 48.5,93.5C 50.2927,91.5739 51.2927,89.2406 51.5,86.5C 52.3382,86.1583 52.6716,85.4916 52.5,84.5C 54.3104,81.855 55.3104,78.855 55.5,75.5C 56.9238,73.4855 57.5905,71.1522 57.5,68.5C 58.4511,67.0813 58.7845,65.4147 58.5,63.5C 59.9943,56.8969 60.661,50.0636 60.5,43C 60.6862,36.2621 60.0195,29.7621 58.5,23.5C 58.7845,21.5853 58.4511,19.9187 57.5,18.5C 57.7678,16.901 57.4345,15.5676 56.5,14.5C 56.7373,13.209 56.404,12.209 55.5,11.5C 55.3284,10.5084 55.6618,9.84171 56.5,9.5 Z"/></g>
<g><path style="opacity:1" fill="#2a7afa" d="M 55.5,11.5 C 55.2627,12.791 55.596,13.791 56.5,14.5C 56.5,15.8333 56.5,17.1667 56.5,18.5C 55.3299,16.3498 54.3299,14.0164 53.5,11.5C 53.9698,10.537 54.6365,10.537 55.5,11.5 Z"/></g>
<g><path style="opacity:1" fill="#2f8afa" d="M 63.5,17.5 C 62.8333,17.5 62.5,17.1667 62.5,16.5C 62.7467,14.0248 63.4134,14.0248 64.5,16.5C 64.3764,17.1067 64.0431,17.44 63.5,17.5 Z"/></g>
<g><path style="opacity:1" fill="#135bfa" d="M 56.5,18.5 C 56.8333,18.5 57.1667,18.5 57.5,18.5C 57.5,20.1667 57.5,21.8333 57.5,23.5C 56.5489,22.0813 56.2155,20.4147 56.5,18.5 Z"/></g>
<g><path style="opacity:1" fill="#1660fa" d="M 67.5,21.5 C 67.1667,21.5 66.8333,21.5 66.5,21.5C 65.8333,21.5 65.5,21.1667 65.5,20.5C 66.3013,18.2071 66.968,18.5404 67.5,21.5 Z"/></g>
<g><path style="opacity:1" fill="#3879fb" d="M 67.5,21.5 C 69.3818,22.221 69.7152,23.221 68.5,24.5C 67.8333,24.5 67.5,24.1667 67.5,23.5C 67.5,22.8333 67.5,22.1667 67.5,21.5 Z"/></g>
<g><path style="opacity:1" fill="#2176fa" d="M 76.5,39.5 C 76.6716,38.5084 76.3382,37.8417 75.5,37.5C 75.6716,36.5084 75.3382,35.8417 74.5,35.5C 74.3932,33.6214 74.8932,33.2881 76,34.5C 77.4544,36.2439 77.6211,37.9106 76.5,39.5 Z"/></g>
<g><path style="opacity:1" fill="#1470fa" d="M 57.5,23.5 C 57.8333,23.5 58.1667,23.5 58.5,23.5C 59.8068,36.8316 59.8068,50.1649 58.5,63.5C 58.1667,63.5 57.8333,63.5 57.5,63.5C 58.8333,50.1667 58.8333,36.8333 57.5,23.5 Z"/></g>
<g><path style="opacity:1" fill="#238efa" d="M 80.5,46.5 C 79.8333,45.8333 79.1667,45.1667 78.5,44.5C 78.3505,43.448 78.5172,42.448 79,41.5C 80.0086,43.0249 80.5086,44.6916 80.5,46.5 Z"/></g>
<g><path style="opacity:1" fill="#3586fb" d="M 80.5,46.5 C 81.5735,47.2506 81.7401,48.2506 81,49.5C 80.5172,48.552 80.3505,47.552 80.5,46.5 Z"/></g>
<g><path style="opacity:1" fill="#00faf9" d="M 84.5,53.5 C 85.8333,54.1667 85.8333,54.1667 84.5,53.5 Z"/></g>
<g><path style="opacity:1" fill="#0170fa" d="M 98.5,75.5 C 98.3284,76.4916 98.6618,77.1583 99.5,77.5C 99.3284,78.4916 99.6618,79.1583 100.5,79.5C 100.263,80.791 100.596,81.791 101.5,82.5C 101.328,83.4916 101.662,84.1583 102.5,84.5C 105.793,96.2621 107.126,108.262 106.5,120.5C 99.1574,119.877 91.8241,119.211 84.5,118.5C 85.4873,113.883 86.154,109.216 86.5,104.5C 87.8333,101.5 87.8333,98.5 86.5,95.5C 86.2909,87.9733 86.6242,80.4733 87.5,73C 87.3333,71.8333 87.1667,70.6667 87,69.5C 86.79,71.0581 86.29,72.3915 85.5,73.5C 87.1197,68.564 86.7864,63.8974 84.5,59.5C 84.7148,57.8212 84.0481,56.8212 82.5,56.5C 82.7373,55.209 82.404,54.209 81.5,53.5C 81.3505,52.448 81.5172,51.448 82,50.5C 88.0038,58.5095 93.5038,66.8428 98.5,75.5 Z"/></g>
<g><path style="opacity:1" fill="#1768fa" d="M 57.5,63.5 C 57.5,65.1667 57.5,66.8333 57.5,68.5C 56.8333,69.5 56.1667,70.5 55.5,71.5C 55.5651,68.5718 56.2318,65.9052 57.5,63.5 Z"/></g>
<g><path style="opacity:1" fill="#277efa" d="M 55.5,71.5 C 55.5,72.8333 55.5,74.1667 55.5,75.5C 54.7321,76.2625 54.2321,77.2625 54,78.5C 53.4119,75.8606 53.9119,73.5273 55.5,71.5 Z"/></g>
<g><path style="opacity:1" fill="#1860fa" d="M 101.5,79.5 C 101.167,79.5 100.833,79.5 100.5,79.5C 100.672,78.5084 100.338,77.8417 99.5,77.5C 99.6716,76.5084 99.3382,75.8417 98.5,75.5C 98.3932,73.6214 98.8932,73.2881 100,74.5C 101.009,76.0249 101.509,77.6916 101.5,79.5 Z"/></g>
<g><path style="opacity:1" fill="#307efa" d="M 101.5,79.5 C 103.345,80.9955 103.678,82.6621 102.5,84.5C 102.672,83.5084 102.338,82.8417 101.5,82.5C 101.5,81.5 101.5,80.5 101.5,79.5 Z"/></g>
<g><path style="opacity:1" fill="#258afa" d="M 52.5,84.5 C 51.6618,84.8417 51.3284,85.5084 51.5,86.5C 50.3789,84.9106 50.5456,83.2439 52,81.5C 52.4828,82.448 52.6495,83.448 52.5,84.5 Z"/></g>
<g><path style="opacity:1" fill="#3091fa" d="M 48.5,93.5 C 47.6618,93.8417 47.3284,94.5084 47.5,95.5C 46.6618,95.8417 46.3284,96.5084 46.5,97.5C 45.3711,95.3339 45.8711,93.3339 48,91.5C 48.4643,92.0944 48.631,92.7611 48.5,93.5 Z"/></g>
<g><path style="opacity:1" fill="#0c6efa" d="M 85.5,95.5 C 85.8333,95.5 86.1667,95.5 86.5,95.5C 86.5,98.5 86.5,101.5 86.5,104.5C 85.6981,105.952 85.1981,107.618 85,109.5C 84.5045,107.527 84.3379,105.527 84.5,103.5C 85.4731,101.052 85.8064,98.3854 85.5,95.5 Z"/></g>
<g><path style="opacity:1" fill="#157dfa" d="M 106.5,95.5 C 107.302,96.9516 107.802,98.6183 108,100.5C 108.667,107.167 108.667,113.833 108,120.5C 107.622,112.152 107.122,103.819 106.5,95.5 Z"/></g>
<g><path style="opacity:1" fill="#3785fb" d="M 39.5,108.5 C 38.8333,108.5 38.5,108.833 38.5,109.5C 37.2875,108.503 37.4542,107.503 39,106.5C 39.4643,107.094 39.631,107.761 39.5,108.5 Z"/></g>
<g><path style="opacity:1" fill="#155efa" d="M 36.5,112.5 C 35.8333,112.5 35.5,112.833 35.5,113.5C 34.2875,112.503 34.4542,111.503 36,110.5C 36.4643,111.094 36.631,111.761 36.5,112.5 Z"/></g>
<g><path style="opacity:1" fill="#0277fa" d="M 81.5,118.5 C 81.5,117.833 81.5,117.167 81.5,116.5C 82.2679,115.737 82.7679,114.737 83,113.5C 83.8769,115.674 83.3769,117.341 81.5,118.5 Z"/></g>
<g><path style="opacity:1" fill="#1d5ffa" d="M 29.5,120.5 C 28.475,120.103 28.3083,119.437 29,118.5C 29.4643,119.094 29.631,119.761 29.5,120.5 Z"/></g>
<g><path style="opacity:1" fill="#1266fa" d="M 80.5,118.5 C 80.8333,118.5 81.1667,118.5 81.5,118.5C 82.6353,120.088 83.9686,120.421 85.5,119.5C 92.4998,120.179 99.4998,121.012 106.5,122C 89.1896,121.285 71.8563,120.618 54.5,120C 63.343,119.83 72.0097,119.33 80.5,118.5 Z"/></g>
<g><path style="opacity:1" fill="#0000fa" d="M 29.5,120.5 C 29.8333,120.5 30.1667,120.5 30.5,120.5C 30.3147,121.17 29.9813,121.17 29.5,120.5 Z"/></g>
<g><path style="opacity:1" fill="#096ffa" d="M 37.5,120.5 C 43.0262,120.179 48.3595,120.512 53.5,121.5C 47.9738,121.821 42.6405,121.488 37.5,120.5 Z"/></g>
<g><path style="opacity:1" fill="#0071fa" d="M 53.5,121.5 C 70.8553,121.649 88.1886,122.316 105.5,123.5C 105.5,124.5 105.5,125.5 105.5,126.5C 104.833,126.5 104.5,126.833 104.5,127.5C 103.833,127.5 103.5,127.833 103.5,128.5C 102.833,128.5 102.5,128.833 102.5,129.5C 101.833,129.5 101.5,129.833 101.5,130.5C 100.833,130.5 100.5,130.833 100.5,131.5C 99.5084,131.328 98.8417,131.662 98.5,132.5C 94.4237,134.186 90.4237,135.853 86.5,137.5C 84.5853,137.216 82.9187,137.549 81.5,138.5C 72.8333,139.833 64.1667,139.833 55.5,138.5C 54.0813,137.549 52.4147,137.216 50.5,137.5C 46.5763,135.853 42.5763,134.186 38.5,132.5C 37.205,131.512 35.8717,130.512 34.5,129.5C 34.5,128.833 34.1667,128.5 33.5,128.5C 32.0582,127.18 31.3915,125.514 31.5,123.5C 38.9885,122.978 46.3218,122.311 53.5,121.5 Z"/></g>
<g><path style="opacity:1" fill="#0a6efa" d="M 29.5,124.5 C 30.525,124.897 30.6917,125.563 30,126.5C 29.5357,125.906 29.369,125.239 29.5,124.5 Z"/></g>
<g><path style="opacity:1" fill="#0157fa" d="M 106.5,126.5 C 106.369,125.761 106.536,125.094 107,124.5C 107.692,125.437 107.525,126.103 106.5,126.5 Z"/></g>
<g><path style="opacity:1" fill="#0063fa" d="M 105.5,126.5 C 105.833,126.5 106.167,126.5 106.5,126.5C 106.315,127.17 105.981,127.17 105.5,126.5 Z"/></g>
<g><path style="opacity:1" fill="#0063fa" d="M 104.5,127.5 C 104.833,127.5 105.167,127.5 105.5,127.5C 105.315,128.17 104.981,128.17 104.5,127.5 Z"/></g>
<g><path style="opacity:1" fill="#1f4ffa" d="M 33.5,128.5 C 34.1667,128.5 34.5,128.833 34.5,129.5C 34.44,130.043 34.1067,130.376 33.5,130.5C 32.2267,129.743 32.2267,129.077 33.5,128.5 Z"/></g>
<g><path style="opacity:1" fill="#1340fa" d="M 103.5,128.5 C 103.833,128.5 104.167,128.5 104.5,128.5C 104.5,129.833 103.833,130.5 102.5,130.5C 102.5,130.167 102.5,129.833 102.5,129.5C 103.167,129.5 103.5,129.167 103.5,128.5 Z"/></g>
<g><path style="opacity:1" fill="#0063fa" d="M 101.5,130.5 C 101.833,130.5 102.167,130.5 102.5,130.5C 102.315,131.17 101.981,131.17 101.5,130.5 Z"/></g>
<g><path style="opacity:1" fill="#0063fa" d="M 100.5,131.5 C 100.833,131.5 101.167,131.5 101.5,131.5C 101.315,132.17 100.981,132.17 100.5,131.5 Z"/></g>
<g><path style="opacity:1" fill="#3083fb" d="M 38.5,132.5 C 38.8333,133.167 39.1667,133.833 39.5,134.5C 36.5404,133.968 36.2071,133.301 38.5,132.5 Z"/></g>
<g><path style="opacity:1" fill="#1b4efa" d="M 98.5,132.5 C 99.1667,132.5 99.8333,132.5 100.5,132.5C 98.6061,135.187 97.9394,135.187 98.5,132.5 Z"/></g>
<g><path style="opacity:1" fill="#1d5ffa" d="M 39.5,134.5 C 40.2389,134.369 40.9056,134.536 41.5,135C 40.5632,135.692 39.8966,135.525 39.5,134.5 Z"/></g>
<g><path style="opacity:1" fill="#2185fa" d="M 50.5,137.5 C 51.9187,138.451 53.5853,138.784 55.5,138.5C 55.5,138.833 55.5,139.167 55.5,139.5C 52.3926,139.649 49.3926,139.149 46.5,138C 47.7932,137.51 49.1266,137.343 50.5,137.5 Z"/></g>
<g><path style="opacity:1" fill="#2185fa" d="M 86.5,137.5 C 87.8734,137.343 89.2068,137.51 90.5,138C 87.6074,139.149 84.6074,139.649 81.5,139.5C 81.5,139.167 81.5,138.833 81.5,138.5C 83.4147,138.784 85.0813,138.451 86.5,137.5 Z"/></g>
<g><path style="opacity:1" fill="#1668fa" d="M 55.5,139.5 C 64.1667,140.833 72.8333,140.833 81.5,139.5C 72.8333,142.167 64.1667,142.167 55.5,139.5 Z"/></g>
</svg>
